<mxfile host="65bd71144e">
    <diagram id="x03yJv9lX2zlvncQwwvf" name="Page-1">
        <mxGraphModel dx="1338" dy="815" grid="1" gridSize="10" guides="1" tooltips="1" connect="1" arrows="1" fold="1" page="1" pageScale="1" pageWidth="850" pageHeight="1100" math="0" shadow="0">
            <root>
                <mxCell id="0"/>
                <mxCell id="1" parent="0"/>
                <mxCell id="2" value="POD" style="rounded=0;whiteSpace=wrap;html=1;fillColor=#dae8fc;strokeColor=#6c8ebf;" vertex="1" parent="1">
                    <mxGeometry x="200" y="340" width="200" height="130" as="geometry"/>
                </mxCell>
                <mxCell id="3" value="POD" style="rounded=0;whiteSpace=wrap;html=1;fillColor=#dae8fc;strokeColor=#6c8ebf;" vertex="1" parent="1">
                    <mxGeometry x="440" y="340" width="200" height="130" as="geometry"/>
                </mxCell>
                <mxCell id="4" value="POD" style="rounded=0;whiteSpace=wrap;html=1;fillColor=#dae8fc;strokeColor=#6c8ebf;" vertex="1" parent="1">
                    <mxGeometry x="690" y="340" width="200" height="130" as="geometry"/>
                </mxCell>
                <mxCell id="5" value="" style="rounded=0;whiteSpace=wrap;html=1;opacity=20;dashed=1;" vertex="1" parent="1">
                    <mxGeometry x="140" y="280" width="790" height="220" as="geometry"/>
                </mxCell>
                <mxCell id="6" value="ReplicaSet&lt;br&gt;" style="text;html=1;strokeColor=none;fillColor=none;align=center;verticalAlign=middle;whiteSpace=wrap;rounded=0;dashed=1;opacity=20;" vertex="1" parent="1">
                    <mxGeometry x="500" y="300" width="40" height="20" as="geometry"/>
                </mxCell>
                <mxCell id="7" value="POD" style="rounded=0;whiteSpace=wrap;html=1;fillColor=#dae8fc;strokeColor=#6c8ebf;" vertex="1" parent="1">
                    <mxGeometry x="200" y="640" width="200" height="130" as="geometry"/>
                </mxCell>
                <mxCell id="8" value="POD" style="rounded=0;whiteSpace=wrap;html=1;fillColor=#dae8fc;strokeColor=#6c8ebf;" vertex="1" parent="1">
                    <mxGeometry x="440" y="640" width="200" height="130" as="geometry"/>
                </mxCell>
                <mxCell id="9" value="POD" style="rounded=0;whiteSpace=wrap;html=1;fillColor=#dae8fc;strokeColor=#6c8ebf;" vertex="1" parent="1">
                    <mxGeometry x="690" y="640" width="200" height="130" as="geometry"/>
                </mxCell>
                <mxCell id="10" value="" style="rounded=0;whiteSpace=wrap;html=1;opacity=20;dashed=1;" vertex="1" parent="1">
                    <mxGeometry x="140" y="580" width="790" height="220" as="geometry"/>
                </mxCell>
                <mxCell id="11" value="ReplicaSet&lt;br&gt;" style="text;html=1;strokeColor=none;fillColor=none;align=center;verticalAlign=middle;whiteSpace=wrap;rounded=0;dashed=1;opacity=20;" vertex="1" parent="1">
                    <mxGeometry x="500" y="600" width="40" height="20" as="geometry"/>
                </mxCell>
                <mxCell id="12" value="" style="rounded=0;whiteSpace=wrap;html=1;dashed=1;opacity=20;" vertex="1" parent="1">
                    <mxGeometry x="460" y="380" width="120" height="60" as="geometry"/>
                </mxCell>
                <mxCell id="13" value="" style="rounded=0;whiteSpace=wrap;html=1;dashed=1;opacity=20;" vertex="1" parent="1">
                    <mxGeometry x="490" y="380" width="120" height="60" as="geometry"/>
                </mxCell>
                <mxCell id="14" value="Deployment" style="rounded=0;whiteSpace=wrap;html=1;dashed=1;fillColor=#d80073;strokeColor=#A50040;fontColor=#ffffff;" vertex="1" parent="1">
                    <mxGeometry x="1060" y="420" width="240" height="260" as="geometry"/>
                </mxCell>
                <mxCell id="15" value="" style="shape=flexArrow;endArrow=classic;html=1;entryX=1.001;entryY=0.609;entryDx=0;entryDy=0;entryPerimeter=0;exitX=0;exitY=0.5;exitDx=0;exitDy=0;" edge="1" parent="1" source="14" target="5">
                    <mxGeometry width="50" height="50" relative="1" as="geometry">
                        <mxPoint x="1000" y="550" as="sourcePoint"/>
                        <mxPoint x="1050" y="500" as="targetPoint"/>
                    </mxGeometry>
                </mxCell>
                <mxCell id="16" value="" style="shape=flexArrow;endArrow=classic;html=1;entryX=1;entryY=0.5;entryDx=0;entryDy=0;" edge="1" parent="1" target="10">
                    <mxGeometry width="50" height="50" relative="1" as="geometry">
                        <mxPoint x="1060" y="550" as="sourcePoint"/>
                        <mxPoint x="900" y="530" as="targetPoint"/>
                    </mxGeometry>
                </mxCell>
            </root>
        </mxGraphModel>
    </diagram>
</mxfile>